<svg xmlns="http://www.w3.org/2000/svg" fill="none" viewBox="0 0 120 120" width="256" height="256"><path fill="#000000" fill-rule="evenodd" d="M65.3707 27.8308C74.9149 19.8003 86.4135 17.7609 92.1351 23.4824C94.4949 25.8422 95.5345 29.1846 95.3781 32.9674L102.742 25.6038C104.304 24.0417 106.836 24.0417 108.399 25.6038C109.961 27.1659 109.961 29.6985 108.399 31.2606L97.792 41.8672L101.328 45.4028C103.28 47.3554 103.28 50.5212 101.328 52.4738L88.7392 65.0622L100.59 86.6086C101.654 88.5443 100.948 90.9765 99.0125 92.0411C97.0769 93.1058 94.6446 92.3996 93.58 90.464L82.7881 70.8423C81.8003 71.4685 80.6408 71.7146 79.5181 71.5805V106C79.5181 108.209 77.7272 110 75.5181 110C73.309 110 71.5181 108.209 71.5181 106L71.5181 73.7979L63.1437 82.1723C61.1911 84.1249 58.0253 84.1249 56.0727 82.1723L49.0016 75.1012C47.049 73.1486 47.049 69.9828 49.0016 68.0302L54.1437 62.8881H15.2499C12.4885 62.8881 10.2499 60.6495 10.2499 57.8881V49.8881C10.2499 47.1267 12.4885 44.8881 15.2499 44.8881H53.7111C54.7979 41.1421 56.8545 37.2237 59.7838 33.5575L56.4262 30.2C54.8641 28.6379 54.8641 26.1052 56.4262 24.5431C57.9883 22.981 60.521 22.981 62.0831 24.5431L65.3707 27.8308ZM80.639 28.562C84.3917 27.7029 85.9975 28.6586 86.4783 29.1393C86.959 29.62 87.9147 31.2258 87.0556 34.9785C86.2252 38.6061 83.8452 43.086 79.7607 47.1705C75.6763 51.255 71.1963 53.635 67.5687 54.4654C63.816 55.3244 62.2102 54.3688 61.7295 53.888C61.2488 53.4073 60.2931 51.8015 61.1522 48.0488C61.7563 45.4097 63.1806 42.3194 65.4847 39.2585L69.5077 43.2815C71.0698 44.8435 73.6025 44.8435 75.1646 43.2815C76.7267 41.7194 76.7267 39.1867 75.1646 37.6246L71.0536 33.5136C74.3704 30.8435 77.7711 29.2185 80.639 28.562ZM85.4176 52.8274C87.5251 50.7199 89.3212 48.47 90.7842 46.1732L93.5493 48.9383L80.1143 62.3733L76.9924 59.2514C79.8994 57.6299 82.7708 55.4742 85.4176 52.8274ZM68.8089 62.3816L70.2148 63.7875L59.6082 74.3941L56.7798 71.5657L65.5252 62.8203C66.6152 62.6394 67.7191 62.6039 68.8089 62.3816ZM52.9492 52.8881C53.0411 53.5784 53.1802 54.2465 53.3675 54.8881H18.2499V52.8881H52.9492Z" clip-rule="evenodd" class="color000 svgShape"></path></svg>